<svg xmlns:dc="http://purl.org/dc/elements/1.1/" xmlns:cc="http://creativecommons.org/ns#" xmlns:rdf="http://www.w3.org/1999/02/22-rdf-syntax-ns#" xmlns:svg="http://www.w3.org/2000/svg" xmlns:sodipodi="http://sodipodi.sourceforge.net/DTD/sodipodi-0.dtd" xmlns:inkscape="http://www.inkscape.org/namespaces/inkscape" xmlns="http://www.w3.org/2000/svg" xmlns:xlink="http://www.w3.org/1999/xlink" version="1.1" x="0px" y="0px" viewBox="1176.5 0.5 64 80" enable-background="new 1176.5 0.5 64 64" xml:space="preserve"><g transform="translate(0,-279.80207)"><path d="M1191.273,295.78c-0.035-0.001-0.068,0-0.104,0.002c-0.551,0.037-0.967,0.515-0.93,1.066   c0.018,0.268,0.143,0.517,0.348,0.691l17,15c0.262,0.254,0.641,0.344,0.99,0.236c0.299,0.051,0.605-0.035,0.832-0.236l17.002-15   c0.42-0.358,0.469-0.99,0.111-1.41c-0.207-0.242-0.518-0.371-0.836-0.348c-0.227,0.016-0.439,0.107-0.605,0.26l-16.586,14.635   l-16.588-14.635C1191.734,295.883,1191.51,295.79,1191.273,295.78z M1191.273,311.784c-0.035-0.001-0.068,0-0.104,0.002   c-0.551,0.037-0.967,0.515-0.93,1.067c0.018,0.268,0.143,0.516,0.348,0.691l17,15c0.262,0.254,0.641,0.344,0.99,0.236   c0.299,0.051,0.605-0.035,0.832-0.236l17.002-15c0.42-0.359,0.469-0.991,0.111-1.411c-0.207-0.242-0.518-0.371-0.836-0.348   c-0.227,0.016-0.439,0.107-0.605,0.26l-16.586,14.635l-16.588-14.635C1191.734,311.886,1191.51,311.794,1191.273,311.784z"/></g></svg>