<svg xmlns:dc="http://purl.org/dc/elements/1.1/" xmlns:cc="http://creativecommons.org/ns#" xmlns:rdf="http://www.w3.org/1999/02/22-rdf-syntax-ns#" xmlns:svg="http://www.w3.org/2000/svg" xmlns:sodipodi="http://sodipodi.sourceforge.net/DTD/sodipodi-0.dtd" xmlns:inkscape="http://www.inkscape.org/namespaces/inkscape" xmlns="http://www.w3.org/2000/svg" xmlns:xlink="http://www.w3.org/1999/xlink" version="1.1" x="0px" y="0px" viewBox="1092.5 0.5 64 80" enable-background="new 1092.5 0.5 64 64" xml:space="preserve"><g transform="translate(0,-279.80207)"><path d="M1124.784,295.78c-0.035-0.001-0.068,0-0.104,0.002c-0.059,0.004-0.117,0.014-0.174,0.027   c-0.1-0.024-0.202-0.034-0.305-0.027c-0.226,0.016-0.439,0.107-0.605,0.26l-17.002,15c-0.43,0.346-0.498,0.976-0.152,1.406   c0.347,0.429,0.977,0.498,1.406,0.152c0.023-0.02,0.047-0.039,0.068-0.061l16.588-14.635l16.586,14.635   c0.403,0.377,1.037,0.357,1.416-0.046c0.377-0.403,0.357-1.037-0.047-1.415c-0.013-0.013-0.027-0.025-0.041-0.037l-17-15   C1125.245,295.883,1125.021,295.79,1124.784,295.78z M1124.784,311.784c-0.035-0.001-0.068,0-0.104,0.002   c-0.059,0.004-0.117,0.014-0.174,0.027c-0.1-0.024-0.202-0.034-0.305-0.027c-0.226,0.016-0.439,0.107-0.605,0.26l-17.002,15   c-0.43,0.346-0.498,0.976-0.152,1.406c0.347,0.43,0.977,0.498,1.406,0.152c0.023-0.02,0.047-0.039,0.068-0.061l16.588-14.635   l16.586,14.635c0.403,0.379,1.037,0.358,1.416-0.045c0.378-0.403,0.357-1.037-0.045-1.416c-0.014-0.013-0.028-0.025-0.043-0.037   l-17-15C1125.245,311.886,1125.021,311.794,1124.784,311.784z"/></g></svg>