<svg xmlns="http://www.w3.org/2000/svg" viewBox="0 0 18 27.5" fill="none" x="0px" y="0px"><path fill-rule="evenodd" clip-rule="evenodd" d="M4.99219 7.87598C6.72119 7.43457 8 5.86658 8 4C8 1.79089 6.20898 0 4 0C1.79102 0 0 1.79089 0 4C0 5.86658 1.27881 7.43457 3.00781 7.87598C3.00293 7.91663 3 7.95801 3 8V14C3 14.042 3.00293 14.0834 3.00781 14.124C1.27881 14.5654 0 16.1334 0 18C0 20.2091 1.79102 22 4 22C6.20898 22 8 20.2091 8 18C8 16.1334 6.72119 14.5654 4.99219 14.124C4.99707 14.0834 5 14.042 5 14V12H14C14.5522 12 15 11.5522 15 11V8C15 7.95801 14.9971 7.91663 14.9922 7.87598C16.7212 7.43457 18 5.86658 18 4C18 1.79089 16.209 0 14 0C11.791 0 10 1.79089 10 4C10 5.86658 11.2788 7.43457 13.0078 7.87598C13.0029 7.91663 13 7.95801 13 8V10H5V8C5 7.95801 4.99707 7.91663 4.99219 7.87598ZM6 4C6 5.10461 5.10449 6 4 6C2.89551 6 2 5.10461 2 4C2 2.89539 2.89551 2 4 2C5.10449 2 6 2.89539 6 4ZM16 4C16 5.10461 15.1045 6 14 6C12.8955 6 12 5.10461 12 4C12 2.89539 12.8955 2 14 2C15.1045 2 16 2.89539 16 4ZM4 20C5.10449 20 6 19.1046 6 18C6 16.8954 5.10449 16 4 16C2.89551 16 2 16.8954 2 18C2 19.1046 2.89551 20 4 20Z" fill="black"/></svg>