<svg xmlns="http://www.w3.org/2000/svg" xmlns:xlink="http://www.w3.org/1999/xlink" version="1.1" x="0px" y="0px" viewBox="0 0 32 40" style="enable-background:new 0 0 32 32;" fill="#ffc42f" xml:space="preserve"><g><path d="M28.94,10.78998l-7.23999-1.04999c-0.14001-0.02002-0.25-0.09998-0.31-0.22003l-3.23999-6.56995   C17.75,2.13,16.91998,1.62,16,1.62S14.25,2.13,13.84998,2.95001l-3.23999,6.56995c-0.06,0.12006-0.16998,0.20001-0.31,0.22003   L3.06,10.78998c-0.90997,0.14001-1.65997,0.76001-1.94,1.64001c-0.28998,0.87-0.04999,1.82001,0.60999,2.46002L6.96997,20   c0.10004,0.08997,0.14001,0.21997,0.12006,0.34998l-1.24005,7.22003C5.69,28.47998,6.06,29.38,6.79999,29.91998   c0.75,0.53998,1.72003,0.60999,2.53003,0.17999l6.48999-3.39996c0.10999-0.07001,0.25-0.07001,0.37,0l6.47998,3.39996   c0.35004,0.19,0.73999,0.28003,1.12,0.28003c0.49005,0,0.99005-0.15002,1.41003-0.46002   c0.73999-0.53998,1.10999-1.44,0.95001-2.34998l-1.24005-7.22003c-0.01996-0.13,0.02002-0.26001,0.12006-0.34998l5.23999-5.10999   c0.65997-0.64001,0.89996-1.59003,0.60999-2.46002C30.59998,11.54999,29.84998,10.92999,28.94,10.78998z"/></g></svg>